<?xml version="1.0" encoding="UTF-8" standalone="no"?>
<!-- Created with Inkscape (http://www.inkscape.org/) -->

<svg
   width="210mm"
   height="297mm"
   viewBox="0 0 210.00001 297"
   id="svg4258"
   version="1.1"
   inkscape:version="1.3.2 (1:1.3.2+202311252150+091e20ef0f)"
   sodipodi:docname="sphere.svg"
   xmlns:inkscape="http://www.inkscape.org/namespaces/inkscape"
   xmlns:sodipodi="http://sodipodi.sourceforge.net/DTD/sodipodi-0.dtd"
   xmlns="http://www.w3.org/2000/svg"
   xmlns:svg="http://www.w3.org/2000/svg"
   xmlns:rdf="http://www.w3.org/1999/02/22-rdf-syntax-ns#"
   xmlns:cc="http://creativecommons.org/ns#"
   xmlns:dc="http://purl.org/dc/elements/1.1/">
  <sodipodi:namedview
     inkscape:document-units="in"
     pagecolor="#ffffff"
     bordercolor="#666666"
     borderopacity="1.0"
     inkscape:pageopacity="0.0"
     inkscape:pageshadow="2"
     inkscape:zoom="0.85359477"
     inkscape:cx="496.13706"
     inkscape:cy="668.34992"
     inkscape:current-layer="layer3"
     id="namedview4262"
     showgrid="false"
     inkscape:window-width="1452"
     inkscape:window-height="999"
     inkscape:window-x="26"
     inkscape:window-y="23"
     inkscape:window-maximized="0"
     units="in"
     inkscape:showpageshadow="2"
     inkscape:pagecheckerboard="0"
     inkscape:deskcolor="#d1d1d1" />
  <defs
     id="defs4260" />
  <metadata
     id="metadata4264">
    <rdf:RDF>
      <cc:Work
         rdf:about="">
        <dc:format>image/svg+xml</dc:format>
        <dc:type
           rdf:resource="http://purl.org/dc/dcmitype/StillImage" />
      </cc:Work>
    </rdf:RDF>
  </metadata>
  <g
     inkscape:groupmode="layer"
     id="layer3"
     inkscape:label="3 - Longitude"
     style="display:inline"
     inkscape:highlight-color="#f35335">
    <path
       style="display:inline;fill:none;stroke:#910c00;stroke-width:0.349848;stroke-opacity:1"
       transform="matrix(0.80409153,0.06481855,-0.06481855,0.80409153,103.22722,143.37909)"
       sodipodi:cx="0"
       sodipodi:cy="0"
       sodipodi:end="4.712389"
       sodipodi:open="true"
       sodipodi:rx="12.870777"
       sodipodi:ry="112.88889"
       sodipodi:start="1.5707963"
       sodipodi:type="arc"
       id="path11626"
       d="m 0,112.88889 a 12.870777,112.88889 0 0 1 -11.14642,-56.444442 12.870777,112.88889 0 0 1 0,-112.888895 A 12.870777,112.88889 0 0 1 0,-112.88889"
       sodipodi:arc-type="arc" />
    <path
       style="display:inline;fill:none;stroke:#910c00;stroke-width:0.349848;stroke-opacity:1"
       transform="matrix(0.79857515,0.11420317,-0.11420317,0.79857515,103.22722,143.37909)"
       sodipodi:cx="0"
       sodipodi:cy="0"
       sodipodi:end="4.712389"
       sodipodi:open="true"
       sodipodi:rx="22.372284"
       sodipodi:ry="112.88889"
       sodipodi:start="1.5707963"
       sodipodi:type="arc"
       id="path11628"
       d="m 0,112.88889 a 22.372284,112.88889 0 0 1 -19.374966,-56.444442 22.372284,112.88889 0 0 1 0,-112.888895 A 22.372284,112.88889 0 0 1 0,-112.88889"
       sodipodi:arc-type="arc" />
    <path
       style="display:inline;fill:none;stroke:#910c00;stroke-width:0.349848;stroke-opacity:1"
       transform="matrix(0.78967525,0.16485636,-0.16485636,0.78967525,103.22722,143.37909)"
       sodipodi:cx="0"
       sodipodi:cy="0"
       sodipodi:end="4.712389"
       sodipodi:open="true"
       sodipodi:rx="31.628685"
       sodipodi:ry="112.88889"
       sodipodi:start="1.5707963"
       sodipodi:type="arc"
       id="path11630"
       d="m 0,112.88889 a 31.628685,112.88889 0 0 1 -27.391245,-56.444442 31.628685,112.88889 0 0 1 0,-112.888895 A 31.628685,112.88889 0 0 1 0,-112.88889"
       sodipodi:arc-type="arc" />
    <path
       style="display:inline;fill:none;stroke:#910c00;stroke-width:0.349848;stroke-opacity:1"
       transform="matrix(0.77687294,0.2173317,-0.2173317,0.77687294,103.22722,143.37909)"
       sodipodi:cx="0"
       sodipodi:cy="0"
       sodipodi:end="4.712389"
       sodipodi:open="true"
       sodipodi:rx="40.538567"
       sodipodi:ry="112.88889"
       sodipodi:start="1.5707963"
       sodipodi:type="arc"
       id="path11632"
       d="m 0,112.88889 a 40.538567,112.88889 0 0 1 -35.107428,-56.444442 40.538567,112.88889 0 0 1 0,-112.888895 A 40.538567,112.88889 0 0 1 0,-112.88889"
       sodipodi:arc-type="arc" />
    <path
       style="display:inline;fill:none;stroke:#910c00;stroke-width:0.349848;stroke-opacity:1"
       transform="matrix(0.75939771,0.27217598,-0.27217598,0.75939771,103.22722,143.37909)"
       sodipodi:cx="0"
       sodipodi:cy="0"
       sodipodi:end="4.712389"
       sodipodi:open="true"
       sodipodi:rx="49.004311"
       sodipodi:ry="112.88889"
       sodipodi:start="1.5707963"
       sodipodi:type="arc"
       id="path11634"
       d="m 0,112.88889 a 49.004311,112.88889 0 0 1 -42.438978,-56.444442 49.004311,112.88889 0 0 1 0,-112.888895 A 49.004311,112.88889 0 0 1 0,-112.88889"
       sodipodi:arc-type="arc" />
    <path
       style="display:inline;fill:none;stroke:#910c00;stroke-width:0.349848;stroke-opacity:1"
       transform="matrix(0.73616203,0.3298941,-0.3298941,0.73616203,103.22722,143.37909)"
       sodipodi:cx="0"
       sodipodi:cy="0"
       sodipodi:end="4.712389"
       sodipodi:open="true"
       sodipodi:rx="56.933167"
       sodipodi:ry="112.88889"
       sodipodi:start="1.5707963"
       sodipodi:type="arc"
       id="path11636"
       d="m 0,112.88889 a 56.933167,112.88889 0 0 1 -49.305568,-56.444442 56.933167,112.88889 0 0 1 0,-112.888895 A 56.933167,112.88889 0 0 1 0,-112.88889"
       sodipodi:arc-type="arc" />
    <path
       style="display:inline;fill:none;stroke:#910c00;stroke-width:0.349848;stroke-opacity:1"
       transform="matrix(0.70567904,0.39087302,-0.39087302,0.70567904,103.22722,143.37909)"
       sodipodi:cx="0"
       sodipodi:cy="0"
       sodipodi:end="4.712389"
       sodipodi:open="true"
       sodipodi:rx="64.238258"
       sodipodi:ry="112.88889"
       sodipodi:start="1.5707963"
       sodipodi:type="arc"
       id="path11638"
       d="m 0,112.88889 a 64.238258,112.88889 0 0 1 -55.631963,-56.444442 64.238258,112.88889 0 0 1 -1e-6,-112.888895 A 64.238258,112.88889 0 0 1 0,-112.88889"
       sodipodi:arc-type="arc" />
    <path
       style="display:inline;fill:none;stroke:#910c00;stroke-width:0.349848;stroke-opacity:1"
       transform="matrix(0.66597653,0.45523609,-0.45523609,0.66597653,103.22722,143.37909)"
       sodipodi:cx="0"
       sodipodi:cy="0"
       sodipodi:end="4.712389"
       sodipodi:open="true"
       sodipodi:rx="70.839554"
       sodipodi:ry="112.88889"
       sodipodi:start="1.5707963"
       sodipodi:type="arc"
       id="path11640"
       d="m 0,112.88889 a 70.839554,112.88889 0 0 1 -61.348853,-56.444442 70.839554,112.88889 0 0 1 0,-112.888895 A 70.839554,112.88889 0 0 1 0,-112.88889"
       sodipodi:arc-type="arc" />
    <path
       style="display:inline;fill:none;stroke:#910c00;stroke-width:0.349848;stroke-opacity:1"
       transform="matrix(0.61454651,0.52258702,-0.52258702,0.61454651,103.22722,143.37909)"
       sodipodi:cx="0"
       sodipodi:cy="0"
       sodipodi:end="4.712389"
       sodipodi:open="true"
       sodipodi:rx="76.664726"
       sodipodi:ry="112.88889"
       sodipodi:start="1.5707963"
       sodipodi:type="arc"
       id="path11642"
       d="m 0,112.88889 a 76.664726,112.88889 0 0 1 -66.3936,-56.444442 76.664726,112.88889 0 0 1 0,-112.888895 A 76.664726,112.88889 0 0 1 0,-112.88889"
       sodipodi:arc-type="arc" />
    <path
       style="display:inline;fill:none;stroke:#910c00;stroke-width:0.349848;stroke-opacity:1"
       transform="matrix(0.54842263,0.59160565,-0.59160565,0.54842263,103.22722,143.37909)"
       sodipodi:cx="0"
       sodipodi:cy="0"
       sodipodi:end="4.712389"
       sodipodi:open="true"
       sodipodi:rx="81.649956"
       sodipodi:ry="112.88889"
       sodipodi:start="1.5707963"
       sodipodi:type="arc"
       id="path11644"
       d="M 0,112.88889 A 81.649956,112.88889 0 0 1 -70.710935,56.444448 81.649956,112.88889 0 0 1 -70.710936,-56.444447 81.649956,112.88889 0 0 1 0,-112.88889"
       sodipodi:arc-type="arc" />
    <path
       style="display:inline;fill:none;stroke:#910c00;stroke-width:0.349848;stroke-opacity:1"
       transform="matrix(0.46455673,0.65950866,-0.65950866,0.46455673,103.22722,143.37909)"
       sodipodi:cx="0"
       sodipodi:cy="0"
       sodipodi:end="4.712389"
       sodipodi:open="true"
       sodipodi:rx="85.740623"
       sodipodi:ry="112.88889"
       sodipodi:start="1.5707963"
       sodipodi:type="arc"
       id="path11646"
       d="m 0,112.88889 a 85.740623,112.88889 0 0 1 -74.253558,-56.444442 85.740623,112.88889 0 0 1 0,-112.888895 A 85.740623,112.88889 0 0 1 0,-112.88889"
       sodipodi:arc-type="arc" />
    <path
       style="display:inline;fill:none;stroke:#910c00;stroke-width:0.349848;stroke-opacity:1"
       transform="matrix(0.36072404,0.72155584,-0.72155584,0.36072404,103.22722,143.37909)"
       sodipodi:cx="0"
       sodipodi:cy="0"
       sodipodi:end="4.712389"
       sodipodi:open="true"
       sodipodi:rx="88.891914"
       sodipodi:ry="112.88889"
       sodipodi:start="1.5707963"
       sodipodi:type="arc"
       id="path11648"
       d="m 0,112.88889 a 88.891914,112.88889 0 0 1 -76.982656,-56.444442 88.891914,112.88889 0 0 1 0,-112.888895 A 88.891914,112.88889 0 0 1 0,-112.88889"
       sodipodi:arc-type="arc" />
    <path
       style="display:inline;fill:none;stroke:#910c00;stroke-width:0.349848;stroke-opacity:1"
       transform="matrix(0.23704487,0.77108647,-0.77108647,0.23704487,103.22722,143.37909)"
       sodipodi:cx="0"
       sodipodi:cy="0"
       sodipodi:end="4.712389"
       sodipodi:open="true"
       sodipodi:rx="91.06929"
       sodipodi:ry="112.88889"
       sodipodi:start="1.5707963"
       sodipodi:type="arc"
       id="path11650"
       d="M 0,112.88889 A 91.06929,112.88889 0 0 1 -78.868318,56.444448 91.06929,112.88889 0 0 1 -78.868319,-56.444447 91.06929,112.88889 0 0 1 0,-112.88889"
       sodipodi:arc-type="arc" />
    <path
       style="display:inline;fill:none;stroke:#910c00;stroke-width:0.349848;stroke-opacity:1"
       transform="matrix(0.09762492,0.80077087,-0.80077087,0.09762492,103.22722,143.37909)"
       sodipodi:cx="0"
       sodipodi:cy="0"
       sodipodi:end="4.712389"
       sodipodi:open="true"
       sodipodi:rx="92.248901"
       sodipodi:ry="112.88889"
       sodipodi:start="1.5707963"
       sodipodi:type="arc"
       id="path11652"
       d="m 0,112.88889 a 92.248901,112.88889 0 0 1 -79.889892,-56.444442 92.248901,112.88889 0 0 1 0,-112.888895 A 92.248901,112.88889 0 0 1 0,-112.88889"
       sodipodi:arc-type="arc" />
    <path
       style="display:inline;fill:none;stroke:#910c00;stroke-width:0.349848;stroke-opacity:1"
       transform="matrix(0.04902313,-0.80520889,0.80520889,0.04902313,103.22722,143.37909)"
       sodipodi:cx="0"
       sodipodi:cy="0"
       sodipodi:end="1.5707963"
       sodipodi:open="true"
       sodipodi:rx="92.417831"
       sodipodi:ry="112.88889"
       sodipodi:start="4.712389"
       sodipodi:type="arc"
       id="path11654"
       d="M 0,-112.88889 A 92.417831,112.88889 0 0 1 92.417831,0 92.417831,112.88889 0 0 1 0,112.88889"
       sodipodi:arc-type="arc" />
    <path
       style="display:inline;fill:none;stroke:#910c00;stroke-width:0.349848;stroke-opacity:1"
       transform="matrix(0.19198293,-0.78352229,0.78352229,0.19198293,103.22722,143.37909)"
       sodipodi:cx="0"
       sodipodi:cy="0"
       sodipodi:end="1.5707963"
       sodipodi:open="true"
       sodipodi:rx="91.574219"
       sodipodi:ry="112.88889"
       sodipodi:start="4.712389"
       sodipodi:type="arc"
       id="path11656"
       d="M 0,-112.88889 A 91.574219,112.88889 0 0 1 91.574219,0 91.574219,112.88889 0 0 1 0,112.88889"
       sodipodi:arc-type="arc" />
    <path
       style="display:inline;fill:none;stroke:#910c00;stroke-width:0.349848;stroke-opacity:1"
       transform="matrix(0.32159473,-0.73982529,0.73982529,0.32159473,103.22722,143.37909)"
       sodipodi:cx="0"
       sodipodi:cy="0"
       sodipodi:end="1.5707963"
       sodipodi:open="true"
       sodipodi:rx="89.727318"
       sodipodi:ry="112.88889"
       sodipodi:start="4.712389"
       sodipodi:type="arc"
       id="path11658"
       d="M 0,-112.88889 A 89.727318,112.88889 0 0 1 89.727318,0 89.727318,112.88889 0 0 1 0,112.88889"
       sodipodi:arc-type="arc" />
    <path
       style="display:inline;fill:none;stroke:#910c00;stroke-width:0.349848;stroke-opacity:1"
       transform="matrix(0.43222393,-0.68113663,0.68113663,0.43222393,103.22722,143.37909)"
       sodipodi:cx="0"
       sodipodi:cy="0"
       sodipodi:end="1.5707963"
       sodipodi:open="true"
       sodipodi:rx="86.897346"
       sodipodi:ry="112.88889"
       sodipodi:start="4.712389"
       sodipodi:type="arc"
       id="path11660"
       d="M 0,-112.88889 A 86.897346,112.88889 0 0 1 86.897346,0 86.897346,112.88889 0 0 1 0,112.88889"
       sodipodi:arc-type="arc" />
    <path
       style="display:inline;fill:none;stroke:#910c00;stroke-width:0.349848;stroke-opacity:1"
       transform="matrix(0.52257768,-0.61455447,0.61455447,0.52257768,103.22722,143.37909)"
       sodipodi:cx="0"
       sodipodi:cy="0"
       sodipodi:end="1.5707963"
       sodipodi:open="true"
       sodipodi:rx="83.115326"
       sodipodi:ry="112.88889"
       sodipodi:start="4.712389"
       sodipodi:type="arc"
       id="path11662"
       d="M 0,-112.88889 A 83.115326,112.88889 0 0 1 83.115326,0 83.115326,112.88889 0 0 1 0,112.88889"
       sodipodi:arc-type="arc" />
    <path
       style="display:inline;fill:none;stroke:#910c00;stroke-width:0.349848;stroke-opacity:1"
       transform="matrix(0.59429271,-0.54550968,0.54550968,0.59429271,103.22722,143.37909)"
       sodipodi:cx="0"
       sodipodi:cy="0"
       sodipodi:end="1.5707963"
       sodipodi:open="true"
       sodipodi:rx="78.422691"
       sodipodi:ry="112.88889"
       sodipodi:start="4.712389"
       sodipodi:type="arc"
       id="path11664"
       d="M 0,-112.88889 A 78.422691,112.88889 0 0 1 78.422691,0 78.422691,112.88889 0 0 1 0,112.88889"
       sodipodi:arc-type="arc" />
    <path
       style="display:inline;fill:none;stroke:#910c00;stroke-width:0.349848;stroke-opacity:1"
       transform="matrix(0.65027518,-0.47739587,0.47739587,0.65027518,103.22722,143.37909)"
       sodipodi:cx="0"
       sodipodi:cy="0"
       sodipodi:end="1.5707963"
       sodipodi:open="true"
       sodipodi:rx="72.87085"
       sodipodi:ry="112.88889"
       sodipodi:start="4.712389"
       sodipodi:type="arc"
       id="path11666"
       d="M 0,-112.88889 A 72.87085,112.88889 0 0 1 72.87085,0 72.87085,112.88889 0 0 1 0,112.88889"
       sodipodi:arc-type="arc" />
    <path
       style="display:inline;fill:none;stroke:#910c00;stroke-width:0.349848;stroke-opacity:1"
       transform="matrix(0.69358202,-0.41195705,0.41195705,0.69358202,103.22722,143.37909)"
       sodipodi:cx="0"
       sodipodi:cy="0"
       sodipodi:end="1.5707963"
       sodipodi:open="true"
       sodipodi:rx="66.52063"
       sodipodi:ry="112.88889"
       sodipodi:start="4.712389"
       sodipodi:type="arc"
       id="path11668"
       d="M 0,-112.88889 A 66.52063,112.88889 0 0 1 66.52063,0 66.52063,112.88889 0 0 1 0,112.88889"
       sodipodi:arc-type="arc" />
    <path
       style="display:inline;fill:none;stroke:#910c00;stroke-width:0.349848;stroke-opacity:1"
       transform="matrix(0.72689293,-0.34984469,0.34984469,0.72689293,103.22722,143.37909)"
       sodipodi:cx="0"
       sodipodi:cy="0"
       sodipodi:end="1.5707963"
       sodipodi:open="true"
       sodipodi:rx="59.441605"
       sodipodi:ry="112.88889"
       sodipodi:start="4.712389"
       sodipodi:type="arc"
       id="path11670"
       d="M 0,-112.88889 A 59.441605,112.88889 0 0 1 59.441605,0 59.441605,112.88889 0 0 1 0,112.88889"
       sodipodi:arc-type="arc" />
    <path
       style="display:inline;fill:none;stroke:#910c00;stroke-width:0.349848;stroke-opacity:1"
       transform="matrix(0.75235688,-0.29107348,0.29107348,0.75235688,103.22722,143.37909)"
       sodipodi:cx="0"
       sodipodi:cy="0"
       sodipodi:end="1.5707963"
       sodipodi:open="true"
       sodipodi:rx="51.711338"
       sodipodi:ry="112.88889"
       sodipodi:start="4.712389"
       sodipodi:type="arc"
       id="path11672"
       d="M 0,-112.88889 A 51.711338,112.88889 0 0 1 51.711338,0 51.711338,112.88889 0 0 1 0,112.88889"
       sodipodi:arc-type="arc" />
    <path
       style="display:inline;fill:none;stroke:#910c00;stroke-width:0.349848;stroke-opacity:1"
       transform="matrix(0.77161352,-0.23532361,0.23532361,0.77161352,103.22722,143.37909)"
       sodipodi:cx="0"
       sodipodi:cy="0"
       sodipodi:end="1.5707963"
       sodipodi:open="true"
       sodipodi:rx="43.41452"
       sodipodi:ry="112.88889"
       sodipodi:start="4.712389"
       sodipodi:type="arc"
       id="path11674"
       d="M 0,-112.88889 A 43.41452,112.88889 0 0 1 43.41452,0 43.41452,112.88889 0 0 1 0,112.88889"
       sodipodi:arc-type="arc" />
    <path
       style="display:inline;fill:none;stroke:#910c00;stroke-width:0.349848;stroke-opacity:1"
       transform="matrix(0.78587375,-0.18211832,0.18211832,0.78587375,103.22722,143.37909)"
       sodipodi:cx="0"
       sodipodi:cy="0"
       sodipodi:end="1.5707963"
       sodipodi:open="true"
       sodipodi:rx="34.642056"
       sodipodi:ry="112.88889"
       sodipodi:start="4.712389"
       sodipodi:type="arc"
       id="path11676"
       d="M 0,-112.88889 A 34.642056,112.88889 0 0 1 34.642056,0 34.642056,112.88889 0 0 1 0,112.88889"
       sodipodi:arc-type="arc" />
    <path
       style="display:inline;fill:none;stroke:#910c00;stroke-width:0.349848;stroke-opacity:1"
       transform="matrix(0.79600549,-0.13091934,0.13091934,0.79600549,103.22722,143.37909)"
       sodipodi:cx="0"
       sodipodi:cy="0"
       sodipodi:end="1.5707963"
       sodipodi:open="true"
       sodipodi:rx="25.490059"
       sodipodi:ry="112.88889"
       sodipodi:start="4.712389"
       sodipodi:type="arc"
       id="path11678"
       d="M 0,-112.88889 A 25.490059,112.88889 0 0 1 25.490059,0 25.490059,112.88889 0 0 1 0,112.88889"
       sodipodi:arc-type="arc" />
    <path
       style="display:inline;fill:none;stroke:#910c00;stroke-width:0.349848;stroke-opacity:1"
       transform="matrix(0.80260549,-0.08117311,0.08117311,0.80260549,103.22722,143.37909)"
       sodipodi:cx="0"
       sodipodi:cy="0"
       sodipodi:end="1.5707963"
       sodipodi:open="true"
       sodipodi:rx="16.058796"
       sodipodi:ry="112.88889"
       sodipodi:start="4.712389"
       sodipodi:type="arc"
       id="path11680"
       d="M 0,-112.88889 A 16.058796,112.88889 0 0 1 16.058796,0 16.058796,112.88889 0 0 1 0,112.88889"
       sodipodi:arc-type="arc" />
    <path
       style="display:inline;fill:none;stroke:#910c00;stroke-width:0.349848;stroke-opacity:1"
       transform="matrix(0.80605177,-0.03232942,0.03232942,0.80605177,103.22722,143.37909)"
       sodipodi:cx="0"
       sodipodi:cy="0"
       sodipodi:end="1.5707963"
       sodipodi:open="true"
       sodipodi:rx="6.451602"
       sodipodi:ry="112.88889"
       sodipodi:start="4.712389"
       sodipodi:type="arc"
       id="path11682"
       d="M 0,-112.88889 A 6.451602,112.88889 0 0 1 6.451602,0 6.451602,112.88889 0 0 1 0,112.88889"
       sodipodi:arc-type="arc" />
    <path
       style="display:inline;fill:none;stroke:#910c00;stroke-width:0.349848;stroke-opacity:1"
       transform="matrix(0.80653807,0.01615474,-0.01615474,0.80653807,103.22722,143.37909)"
       sodipodi:cx="0"
       sodipodi:cy="0"
       sodipodi:end="4.712389"
       sodipodi:open="true"
       sodipodi:rx="3.228267"
       sodipodi:ry="112.88889"
       sodipodi:start="1.5707963"
       sodipodi:type="arc"
       id="path11684"
       d="m 0,112.88889 a 3.228267,112.88889 0 0 1 -2.7957612,-56.444442 3.228267,112.88889 0 0 1 0,-112.888895 A 3.228267,112.88889 0 0 1 0,-112.88889"
       sodipodi:arc-type="arc" />
  </g>
  <g
     inkscape:groupmode="layer"
     id="layer2"
     inkscape:label="2 - Latitude"
     transform="translate(-3.4050209e-6)"
     style="display:inline"
     inkscape:highlight-color="#35f34c">
    <path
       style="display:inline;fill:none;stroke:#029a1e;stroke-width:0.349848;stroke-opacity:1"
       sodipodi:cx="0"
       sodipodi:cy="75.368248"
       sodipodi:end="1.7446262"
       sodipodi:open="true"
       sodipodi:rx="65.410202"
       sodipodi:ry="37.518753"
       sodipodi:start="1.3969664"
       sodipodi:type="arc"
       id="path11688"
       d="m 11.313075,112.32158 a 65.410202,37.518753 0 0 1 -22.626146,0"
       sodipodi:arc-type="arc"
       transform="matrix(0.80669984,0,0,0.80669984,103.22722,143.37909)" />
    <path
       style="display:inline;fill:none;stroke:#029a1e;stroke-width:0.349848;stroke-opacity:1"
       sodipodi:cx="0"
       sodipodi:cy="72.51004"
       sodipodi:end="2.0557654"
       sodipodi:open="true"
       sodipodi:rx="70.059914"
       sodipodi:ry="40.185715"
       sodipodi:start="1.0858272"
       sodipodi:type="arc"
       id="path11690"
       d="m 32.660604,108.06191 a 70.059914,40.185715 0 0 1 -65.321205,0"
       sodipodi:arc-type="arc"
       transform="matrix(0.80669984,0,0,0.80669984,103.22722,143.37909)" />
    <path
       style="display:inline;fill:none;stroke:#029a1e;stroke-width:0.349848;stroke-opacity:1"
       sodipodi:cx="0"
       sodipodi:cy="69.459549"
       sodipodi:end="2.2197648"
       sodipodi:open="true"
       sodipodi:rx="74.523842"
       sodipodi:ry="42.746117"
       sodipodi:start="0.92182786"
       sodipodi:type="arc"
       id="path11692"
       d="m 45.039594,103.51571 a 74.523842,42.746117 0 0 1 -90.079188,0"
       sodipodi:arc-type="arc"
       transform="matrix(0.80669984,0,0,0.80669984,103.22722,143.37909)" />
    <path
       style="display:inline;fill:none;stroke:#029a1e;stroke-width:0.349848;stroke-opacity:1"
       sodipodi:cx="0"
       sodipodi:cy="66.224861"
       sodipodi:end="2.3399859"
       sodipodi:open="true"
       sodipodi:rx="78.790138"
       sodipodi:ry="45.193169"
       sodipodi:start="0.80160678"
       sodipodi:type="arc"
       id="path11694"
       d="m 54.802731,98.695006 a 78.790138,45.193169 0 0 1 -109.605463,-1e-6"
       sodipodi:arc-type="arc"
       transform="matrix(0.80669984,0,0,0.80669984,103.22722,143.37909)" />
    <path
       style="display:inline;fill:none;stroke:#029a1e;stroke-width:0.349848;stroke-opacity:1"
       sodipodi:cx="0"
       sodipodi:cy="62.814556"
       sodipodi:end="2.4365036"
       sodipodi:open="true"
       sodipodi:rx="82.847504"
       sodipodi:ry="47.520374"
       sodipodi:start="0.70508904"
       sodipodi:type="arc"
       id="path11696"
       d="M 63.092835,93.612589 A 82.847504,47.520374 0 0 1 0,110.33493 82.847504,47.520374 0 0 1 -63.092834,93.612589"
       sodipodi:arc-type="arc"
       transform="matrix(0.80669984,0,0,0.80669984,103.22722,143.37909)" />
    <path
       style="display:inline;fill:none;stroke:#029a1e;stroke-width:0.349848;stroke-opacity:1"
       sodipodi:cx="0"
       sodipodi:cy="59.237679"
       sodipodi:end="2.517775"
       sodipodi:open="true"
       sodipodi:rx="86.685173"
       sodipodi:ry="49.721573"
       sodipodi:start="0.62381766"
       sodipodi:type="arc"
       id="path11698"
       d="M 70.358397,88.28194 A 86.685173,49.721573 0 0 1 0,108.95925 86.685173,49.721573 0 0 1 -70.358397,88.28194"
       sodipodi:arc-type="arc"
       transform="matrix(0.80669984,0,0,0.80669984,103.22722,143.37909)" />
    <path
       style="display:inline;fill:none;stroke:#029a1e;stroke-width:0.349848;stroke-opacity:1"
       sodipodi:cx="0"
       sodipodi:cy="55.503716"
       sodipodi:end="2.5883501"
       sodipodi:open="true"
       sodipodi:rx="90.292961"
       sodipodi:ry="51.790916"
       sodipodi:start="0.5532425"
       sodipodi:type="arc"
       id="path11700"
       d="M 76.823529,82.71719 A 90.292961,51.790916 0 0 1 0,107.29463 90.292961,51.790916 0 0 1 -76.823527,82.717192"
       sodipodi:arc-type="arc"
       transform="matrix(0.80669984,0,0,0.80669984,103.22722,143.37909)" />
    <path
       style="display:inline;fill:none;stroke:#029a1e;stroke-width:0.349848;stroke-opacity:1"
       sodipodi:cx="0"
       sodipodi:cy="51.622562"
       sodipodi:end="2.6510202"
       sodipodi:open="true"
       sodipodi:rx="93.661316"
       sodipodi:ry="53.722923"
       sodipodi:start="0.49057243"
       sodipodi:type="arc"
       id="path11702"
       d="M 82.615211,76.933091 A 93.661316,53.722923 0 0 1 0,105.34549 93.661316,53.722923 0 0 1 -82.61521,76.933092"
       sodipodi:arc-type="arc"
       transform="matrix(0.80669984,0,0,0.80669984,103.22722,143.37909)" />
    <path
       style="display:inline;fill:none;stroke:#029a1e;stroke-width:0.349848;stroke-opacity:1"
       sodipodi:cx="0"
       sodipodi:cy="47.604519"
       sodipodi:end="2.7076465"
       sodipodi:open="true"
       sodipodi:rx="96.781296"
       sodipodi:ry="55.51247"
       sodipodi:start="0.4339462"
       sodipodi:type="arc"
       id="path11704"
       d="M 87.810988,70.944987 A 96.781296,55.51247 0 0 1 0,103.11699 96.781296,55.51247 0 0 1 -87.81099,70.944985"
       sodipodi:arc-type="arc"
       transform="matrix(0.80669984,0,0,0.80669984,103.22722,143.37909)" />
    <path
       style="display:inline;fill:none;stroke:#029a1e;stroke-width:0.349848;stroke-opacity:1"
       sodipodi:cx="0"
       sodipodi:cy="43.460236"
       sodipodi:end="2.7595452"
       sodipodi:open="true"
       sodipodi:rx="99.64463"
       sodipodi:ry="57.154812"
       sodipodi:start="0.38204744"
       sodipodi:type="arc"
       id="path11706"
       d="M 92.460577,64.768754 A 99.64463,57.154812 0 0 1 0,100.61505 99.64463,57.154812 0 0 1 -92.460576,64.768755"
       sodipodi:arc-type="arc"
       transform="matrix(0.80669984,0,0,0.80669984,103.22722,143.37909)" />
    <path
       style="display:inline;fill:none;stroke:#029a1e;stroke-width:0.349848;stroke-opacity:1"
       sodipodi:cx="0"
       sodipodi:cy="39.200706"
       sodipodi:end="2.8076902"
       sodipodi:open="true"
       sodipodi:rx="102.24372"
       sodipodi:ry="58.645588"
       sodipodi:start="0.3339025"
       sodipodi:type="arc"
       id="path11708"
       d="M 96.596858,58.420771 A 102.24372,58.645588 0 0 1 0,97.846294 102.24372,58.645588 0 0 1 -96.59686,58.420768"
       sodipodi:arc-type="arc"
       transform="matrix(0.80669984,0,0,0.80669984,103.22722,143.37909)" />
    <path
       style="display:inline;fill:none;stroke:#029a1e;stroke-width:0.349848;stroke-opacity:1"
       sodipodi:cx="0"
       sodipodi:cy="34.837219"
       sodipodi:end="2.8528279"
       sodipodi:open="true"
       sodipodi:rx="104.57169"
       sodipodi:ry="59.980854"
       sodipodi:start="0.28876472"
       sodipodi:type="arc"
       id="path11710"
       d="M 100.24205,51.917866 A 104.57169,59.980854 0 0 1 0,94.818073 104.57169,59.980854 0 0 1 -100.24205,51.917867"
       sodipodi:arc-type="arc"
       transform="matrix(0.80669984,0,0,0.80669984,103.22722,143.37909)" />
    <path
       style="display:inline;fill:none;stroke:#029a1e;stroke-width:0.349848;stroke-opacity:1"
       sodipodi:cx="0"
       sodipodi:cy="30.381353"
       sodipodi:end="2.8955492"
       sodipodi:open="true"
       sodipodi:rx="106.62234"
       sodipodi:ry="61.157063"
       sodipodi:start="0.2460435"
       sodipodi:type="arc"
       id="path11712"
       d="M 103.41127,45.277289 A 106.62234,61.157063 0 0 1 0,91.538416 106.62234,61.157063 0 0 1 -103.41127,45.277286"
       sodipodi:arc-type="arc"
       transform="matrix(0.80669984,0,0,0.80669984,103.22722,143.37909)" />
    <path
       style="display:inline;fill:none;stroke:#029a1e;stroke-width:0.349848;stroke-opacity:1"
       sodipodi:cx="0"
       sodipodi:cy="25.844921"
       sodipodi:end="2.9363342"
       sodipodi:open="true"
       sodipodi:rx="108.39025"
       sodipodi:ry="62.171093"
       sodipodi:start="0.20525847"
       sodipodi:type="arc"
       id="path11714"
       d="M 106.11496,38.516646 A 108.39025,62.171093 0 0 1 0,88.016014 108.39025,62.171093 0 0 1 -106.11496,38.516645"
       sodipodi:arc-type="arc"
       transform="matrix(0.80669984,0,0,0.80669984,103.22722,143.37909)" />
    <path
       style="display:inline;fill:none;stroke:#029a1e;stroke-width:0.349848;stroke-opacity:1"
       sodipodi:cx="0"
       sodipodi:cy="21.239952"
       sodipodi:end="2.9755841"
       sodipodi:open="true"
       sodipodi:rx="109.87074"
       sodipodi:ry="63.020264"
       sodipodi:start="0.16600852"
       sodipodi:type="arc"
       id="path11716"
       d="M 108.36026,31.653866 A 109.87074,63.020264 0 0 1 0,84.260216 109.87074,63.020264 0 0 1 -108.36026,31.653868"
       sodipodi:arc-type="arc"
       transform="matrix(0.80669984,0,0,0.80669984,103.22722,143.37909)" />
    <path
       style="display:inline;fill:none;stroke:#029a1e;stroke-width:0.349848;stroke-opacity:1"
       sodipodi:cx="0"
       sodipodi:cy="16.578659"
       sodipodi:end="3.0136427"
       sodipodi:open="true"
       sodipodi:rx="111.05986"
       sodipodi:ry="63.702316"
       sodipodi:start="0.12794997"
       sodipodi:type="arc"
       id="path11718"
       d="M 110.15201,24.707147 A 111.05986,63.702316 0 0 1 0,80.280975 111.05986,63.702316 0 0 1 -110.15201,24.707146"
       sodipodi:arc-type="arc"
       transform="matrix(0.80669984,0,0,0.80669984,103.22722,143.37909)" />
    <path
       style="display:inline;fill:none;stroke:#029a1e;stroke-width:0.349848;stroke-opacity:1"
       sodipodi:cx="0"
       sodipodi:cy="11.873403"
       sodipodi:end="3.0508121"
       sodipodi:open="true"
       sodipodi:rx="111.95447"
       sodipodi:ry="64.215446"
       sodipodi:start="0.090780522"
       sodipodi:type="arc"
       id="path11720"
       d="M 111.49347,17.694911 A 111.95447,64.215446 0 0 1 0,76.088849 111.95447,64.215446 0 0 1 -111.49347,17.694913"
       sodipodi:arc-type="arc"
       transform="matrix(0.80669984,0,0,0.80669984,103.22722,143.37909)" />
    <path
       style="display:inline;fill:none;stroke:#029a1e;stroke-width:0.349848;stroke-opacity:1"
       sodipodi:cx="0"
       sodipodi:cy="7.1366591"
       sodipodi:end="3.0873656"
       sodipodi:open="true"
       sodipodi:rx="112.5522"
       sodipodi:ry="64.558289"
       sodipodi:start="0.054227064"
       sodipodi:type="arc"
       id="path11722"
       d="M 112.38676,10.63575 A 112.5522,64.558289 0 0 1 0,71.694948 112.5522,64.558289 0 0 1 -112.38676,10.635749"
       sodipodi:arc-type="arc"
       transform="matrix(0.80669984,0,0,0.80669984,103.22722,143.37909)" />
    <path
       style="display:inline;fill:none;stroke:#029a1e;stroke-width:0.349848;stroke-opacity:1"
       sodipodi:cx="0"
       sodipodi:cy="2.380991"
       sodipodi:end="3.1235568"
       sodipodi:open="true"
       sodipodi:rx="112.85146"
       sodipodi:ry="64.729942"
       sodipodi:start="0.01803584"
       sodipodi:type="arc"
       id="path11724"
       d="M 112.83311,3.5483866 A 112.85146,64.729942 0 0 1 0,67.110933 112.85146,64.729942 0 0 1 -112.83311,3.5483875"
       sodipodi:arc-type="arc"
       transform="matrix(0.80669984,0,0,0.80669984,103.22722,143.37909)" />
    <path
       style="display:inline;fill:none;stroke:#029a1e;stroke-width:0.349848;stroke-opacity:1"
       sodipodi:cx="0"
       sodipodi:cy="-2.380991"
       sodipodi:end="3.1596285"
       sodipodi:open="true"
       sodipodi:rx="112.85146"
       sodipodi:ry="64.729942"
       sodipodi:start="6.2651495"
       sodipodi:type="arc"
       id="path11726"
       d="M 112.83311,-3.5483844 A 112.85146,64.729942 0 0 1 57.012267,53.481196 112.85146,64.729942 0 0 1 -57.012271,53.481195 112.85146,64.729942 0 0 1 -112.83311,-3.548387"
       sodipodi:arc-type="arc"
       transform="matrix(0.80669984,0,0,0.80669984,103.22722,143.37909)" />
    <path
       style="display:inline;fill:none;stroke:#029a1e;stroke-width:0.349848;stroke-opacity:1"
       sodipodi:cx="0"
       sodipodi:cy="-7.1366591"
       sodipodi:end="3.1958197"
       sodipodi:open="true"
       sodipodi:rx="112.5522"
       sodipodi:ry="64.558289"
       sodipodi:start="6.2289582"
       sodipodi:type="arc"
       id="path11728"
       d="m 112.38676,-10.635753 a 112.5522,64.558289 0 0 1 -54.358053,58.815641 112.5522,64.558289 0 0 1 -116.057408,2e-6 112.5522,64.558289 0 0 1 -54.358059,-58.815639"
       sodipodi:arc-type="arc"
       transform="matrix(0.80669984,0,0,0.80669984,103.22722,143.37909)" />
    <path
       style="display:inline;fill:none;stroke:#029a1e;stroke-width:0.349848;stroke-opacity:1"
       sodipodi:cx="0"
       sodipodi:cy="-11.873403"
       sodipodi:end="3.2323732"
       sodipodi:open="true"
       sodipodi:rx="111.95447"
       sodipodi:ry="64.215446"
       sodipodi:start="6.1924048"
       sodipodi:type="arc"
       id="path11730"
       d="m 111.49347,-17.69491 a 111.95447,64.215446 0 0 1 -52.608424,60.436819 111.95447,64.215446 0 0 1 -117.770095,-10e-7 111.95447,64.215446 0 0 1 -52.608421,-60.43682"
       sodipodi:arc-type="arc"
       transform="matrix(0.80669984,0,0,0.80669984,103.22722,143.37909)" />
    <path
       style="display:inline;fill:none;stroke:#029a1e;stroke-width:0.349848;stroke-opacity:1"
       sodipodi:cx="0"
       sodipodi:cy="-16.578659"
       sodipodi:end="3.2695426"
       sodipodi:open="true"
       sodipodi:rx="111.05986"
       sodipodi:ry="63.702316"
       sodipodi:start="6.1552353"
       sodipodi:type="arc"
       id="path11732"
       d="m 110.15201,-24.70715 a 111.05986,63.702316 0 0 1 -50.571714,61.888106 111.05986,63.702316 0 0 1 -119.160587,2e-6 111.05986,63.702316 0 0 1 -50.571719,-61.888104"
       sodipodi:arc-type="arc"
       transform="matrix(0.80669984,0,0,0.80669984,103.22722,143.37909)" />
    <path
       style="display:inline;fill:none;stroke:#029a1e;stroke-width:0.349848;stroke-opacity:1"
       sodipodi:cx="0"
       sodipodi:cy="-21.239952"
       sodipodi:end="3.3076012"
       sodipodi:open="true"
       sodipodi:rx="109.87074"
       sodipodi:ry="63.020264"
       sodipodi:start="6.1171768"
       sodipodi:type="arc"
       id="path11734"
       d="m 108.36026,-31.653865 a 109.87074,63.020264 0 0 1 -48.24638,63.164764 109.87074,63.020264 0 0 1 -120.227764,-2e-6 109.87074,63.020264 0 0 1 -48.246376,-63.164765"
       sodipodi:arc-type="arc"
       transform="matrix(0.80669984,0,0,0.80669984,103.22722,143.37909)" />
    <path
       style="display:inline;fill:none;stroke:#029a1e;stroke-width:0.349848;stroke-opacity:1"
       sodipodi:cx="0"
       sodipodi:cy="-25.844921"
       sodipodi:end="3.3468511"
       sodipodi:open="true"
       sodipodi:rx="108.39025"
       sodipodi:ry="62.171093"
       sodipodi:start="6.0779268"
       sodipodi:type="arc"
       id="path11736"
       d="m 106.11496,-38.516649 a 108.39025,62.171093 0 0 1 -45.629192,64.262301 108.39025,62.171093 0 0 1 -120.97153,2e-6 108.39025,62.171093 0 0 1 -45.629198,-64.262299"
       sodipodi:arc-type="arc"
       transform="matrix(0.80669984,0,0,0.80669984,103.22722,143.37909)" />
    <path
       style="display:inline;fill:none;stroke:#029a1e;stroke-width:0.349848;stroke-opacity:1"
       sodipodi:cx="0"
       sodipodi:cy="-30.381353"
       sodipodi:end="3.3876362"
       sodipodi:open="true"
       sodipodi:rx="106.62234"
       sodipodi:ry="61.157063"
       sodipodi:start="6.0371418"
       sodipodi:type="arc"
       id="path11738"
       d="m 103.41127,-45.27729 a 106.62234,61.157063 0 0 1 -42.714758,65.176408 106.62234,61.157063 0 0 1 -121.393028,-2e-6 106.62234,61.157063 0 0 1 -42.714744,-65.176408"
       sodipodi:arc-type="arc"
       transform="matrix(0.80669984,0,0,0.80669984,103.22722,143.37909)" />
    <path
       style="display:inline;fill:none;stroke:#029a1e;stroke-width:0.349848;stroke-opacity:1"
       sodipodi:cx="0"
       sodipodi:cy="-34.837219"
       sodipodi:end="3.4303574"
       sodipodi:open="true"
       sodipodi:rx="104.57169"
       sodipodi:ry="59.980854"
       sodipodi:start="5.9944206"
       sodipodi:type="arc"
       id="path11740"
       d="m 100.24205,-51.917865 a 104.57169,59.980854 0 0 1 -39.494674,65.90287 104.57169,59.980854 0 0 1 -121.494755,-10e-7 104.57169,59.980854 0 0 1 -39.494671,-65.902871"
       sodipodi:arc-type="arc"
       transform="matrix(0.80669984,0,0,0.80669984,103.22722,143.37909)" />
    <path
       style="display:inline;fill:none;stroke:#029a1e;stroke-width:0.349848;stroke-opacity:1"
       sodipodi:cx="0"
       sodipodi:cy="-39.200706"
       sodipodi:end="3.4754952"
       sodipodi:open="true"
       sodipodi:rx="102.24372"
       sodipodi:ry="58.645588"
       sodipodi:start="5.9492828"
       sodipodi:type="arc"
       id="path11742"
       d="M 96.596858,-58.420771 A 102.24372,58.645588 0 0 1 60.640412,8.0166889 102.24372,58.645588 0 0 1 -60.640415,8.0166876 102.24372,58.645588 0 0 1 -96.596857,-58.420773"
       sodipodi:arc-type="arc"
       transform="matrix(0.80669984,0,0,0.80669984,103.22722,143.37909)" />
    <path
       style="display:inline;fill:none;stroke:#029a1e;stroke-width:0.349848;stroke-opacity:1"
       sodipodi:cx="0"
       sodipodi:cy="-43.460236"
       sodipodi:end="3.5236401"
       sodipodi:open="true"
       sodipodi:rx="99.64463"
       sodipodi:ry="57.154812"
       sodipodi:start="5.9011379"
       sodipodi:type="arc"
       id="path11744"
       d="M 92.460578,-64.768752 A 99.64463,57.154812 0 0 1 60.378741,2.0069765 99.64463,57.154812 0 0 1 -60.378744,2.0069752 99.64463,57.154812 0 0 1 -92.460576,-64.768754"
       sodipodi:arc-type="arc"
       transform="matrix(0.80669984,0,0,0.80669984,103.22722,143.37909)" />
    <path
       style="display:inline;fill:none;stroke:#029a1e;stroke-width:0.349848;stroke-opacity:1"
       sodipodi:cx="0"
       sodipodi:cy="-47.604519"
       sodipodi:end="3.5755389"
       sodipodi:open="true"
       sodipodi:rx="96.781296"
       sodipodi:ry="55.51247"
       sodipodi:start="5.8492391"
       sodipodi:type="arc"
       id="path11746"
       d="M 87.810988,-70.944988 A 96.781296,55.51247 0 0 1 59.966793,-4.0322958 96.781296,55.51247 0 0 1 -59.966796,-4.0322971 96.781296,55.51247 0 0 1 -87.810986,-70.94499"
       sodipodi:arc-type="arc"
       transform="matrix(0.80669984,0,0,0.80669984,103.22722,143.37909)" />
    <path
       style="display:inline;fill:none;stroke:#029a1e;stroke-width:0.349848;stroke-opacity:1"
       sodipodi:cx="0"
       sodipodi:cy="-51.622562"
       sodipodi:end="3.6321651"
       sodipodi:open="true"
       sodipodi:rx="93.661316"
       sodipodi:ry="53.722923"
       sodipodi:start="5.7926129"
       sodipodi:type="arc"
       id="path11748"
       d="m 82.615212,-76.93309 a 93.661316,53.722923 0 0 1 -23.204378,66.842334 93.661316,53.722923 0 0 1 -118.82167,-2e-6 93.661316,53.722923 0 0 1 -23.204374,-66.842334"
       sodipodi:arc-type="arc"
       transform="matrix(0.80669984,0,0,0.80669984,103.22722,143.37909)" />
    <path
       style="display:inline;fill:none;stroke:#029a1e;stroke-width:0.349848;stroke-opacity:1"
       sodipodi:cx="0"
       sodipodi:cy="-55.503716"
       sodipodi:end="3.6948352"
       sodipodi:open="true"
       sodipodi:rx="90.292961"
       sodipodi:ry="51.790916"
       sodipodi:start="5.7299428"
       sodipodi:type="arc"
       id="path11750"
       d="m 76.823529,-82.71719 a 90.292961,51.790916 0 0 1 -18.103708,66.556735 90.292961,51.790916 0 0 1 -117.439645,-1e-6 90.292961,51.790916 0 0 1 -18.103703,-66.556736"
       sodipodi:arc-type="arc"
       transform="matrix(0.80669984,0,0,0.80669984,103.22722,143.37909)" />
    <path
       style="display:inline;fill:none;stroke:#029a1e;stroke-width:0.349848;stroke-opacity:1"
       sodipodi:cx="0"
       sodipodi:cy="-59.237679"
       sodipodi:end="3.7654103"
       sodipodi:open="true"
       sodipodi:rx="86.685173"
       sodipodi:ry="49.721573"
       sodipodi:start="5.6593676"
       sodipodi:type="arc"
       id="path11752"
       d="m 70.358394,-88.281942 a 86.685173,49.721573 0 0 1 -12.451403,66.044465 86.685173,49.721573 0 0 1 -115.813978,2e-6 86.685173,49.721573 0 0 1 -12.45141,-66.044465"
       sodipodi:arc-type="arc"
       transform="matrix(0.80669984,0,0,0.80669984,103.22722,143.37909)" />
    <path
       style="display:inline;fill:none;stroke:#029a1e;stroke-width:0.349848;stroke-opacity:1"
       sodipodi:cx="0"
       sodipodi:cy="-62.814556"
       sodipodi:end="3.8466817"
       sodipodi:open="true"
       sodipodi:rx="82.847504"
       sodipodi:ry="47.520374"
       sodipodi:start="5.5780963"
       sodipodi:type="arc"
       id="path11754"
       d="m 63.092837,-93.612587 a 82.847504,47.520374 0 0 1 -6.099833,65.287379 82.847504,47.520374 0 0 1 -113.986011,-1e-6 82.847504,47.520374 0 0 1 -6.099828,-65.28738"
       sodipodi:arc-type="arc"
       transform="matrix(0.80669984,0,0,0.80669984,103.22722,143.37909)" />
    <path
       style="display:inline;fill:none;stroke:#029a1e;stroke-width:0.349848;stroke-opacity:1"
       sodipodi:cx="0"
       sodipodi:cy="-66.224861"
       sodipodi:end="3.9431994"
       sodipodi:open="true"
       sodipodi:rx="78.790138"
       sodipodi:ry="45.193169"
       sodipodi:start="5.4815785"
       sodipodi:type="arc"
       id="path11756"
       d="M 54.802729,-98.695007 A 78.790138,45.193169 0 0 1 73.034562,-49.269129 78.790138,45.193169 0 0 1 0,-21.031693 78.790138,45.193169 0 0 1 -73.03456,-49.269127 78.790138,45.193169 0 0 1 -54.802733,-98.695005"
       sodipodi:arc-type="arc"
       transform="matrix(0.80669984,0,0,0.80669984,103.22722,143.37909)" />
    <path
       style="display:inline;fill:none;stroke:#029a1e;stroke-width:0.349848;stroke-opacity:1"
       sodipodi:cx="0"
       sodipodi:cy="-69.459549"
       sodipodi:end="4.0634205"
       sodipodi:open="true"
       sodipodi:rx="74.523842"
       sodipodi:ry="42.746117"
       sodipodi:start="5.3613574"
       sodipodi:type="arc"
       id="path11758"
       d="M 45.039591,-103.51571 A 74.523842,42.746117 0 0 1 70.634838,-55.831235 74.523842,42.746117 0 0 1 0,-26.713432 a 74.523842,42.746117 0 0 1 -70.634836,-29.1178 74.523842,42.746117 0 0 1 25.595241,-47.684478"
       sodipodi:arc-type="arc"
       transform="matrix(0.80669984,0,0,0.80669984,103.22722,143.37909)" />
    <path
       style="display:inline;fill:none;stroke:#029a1e;stroke-width:0.349848;stroke-opacity:1"
       sodipodi:cx="0"
       sodipodi:cy="-72.51004"
       sodipodi:end="4.2274199"
       sodipodi:open="true"
       sodipodi:rx="70.059914"
       sodipodi:ry="40.185715"
       sodipodi:start="5.1973581"
       sodipodi:type="arc"
       id="path11760"
       d="M 32.660603,-108.06191 A 70.059914,40.185715 0 0 1 68.010268,-62.860837 70.059914,40.185715 0 0 1 0,-32.324326 70.059914,40.185715 0 0 1 -68.010269,-62.860839 70.059914,40.185715 0 0 1 -32.660601,-108.06191"
       sodipodi:arc-type="arc"
       transform="matrix(0.80669984,0,0,0.80669984,103.22722,143.37909)" />
    <path
       style="display:inline;fill:none;stroke:#029a1e;stroke-width:0.349848;stroke-opacity:1"
       sodipodi:cx="0"
       sodipodi:cy="-75.368248"
       sodipodi:end="4.5385591"
       sodipodi:open="true"
       sodipodi:rx="65.410202"
       sodipodi:ry="37.518753"
       sodipodi:start="4.8862189"
       sodipodi:type="arc"
       id="path11762"
       d="M 11.313074,-112.32158 A 65.410202,37.518753 0 0 1 65.163296,-72.111411 65.410202,37.518753 0 0 1 0,-37.849495 65.410202,37.518753 0 0 1 -65.163296,-72.111412 65.410202,37.518753 0 0 1 -11.313072,-112.32158"
       sodipodi:arc-type="arc"
       transform="matrix(0.80669984,0,0,0.80669984,103.22722,143.37909)" />
    <ellipse
       style="display:inline;fill:none;stroke:#029a1e;stroke-width:0.349848;stroke-opacity:1"
       id="path11764"
       cx="0"
       cy="-78.026596"
       rx="60.587036"
       ry="34.752296"
       transform="matrix(0.80669984,0,0,0.80669984,103.22722,143.37909)" />
    <ellipse
       style="display:inline;fill:none;stroke:#029a1e;stroke-width:0.349848;stroke-opacity:1"
       id="path11766"
       cx="0"
       cy="-80.478027"
       rx="55.603203"
       ry="31.893688"
       transform="matrix(0.80669984,0,0,0.80669984,103.22722,143.37909)" />
    <ellipse
       style="display:inline;fill:none;stroke:#029a1e;stroke-width:0.349848;stroke-opacity:1"
       id="path11768"
       cx="0"
       cy="-82.716049"
       rx="50.47192"
       ry="28.950504"
       transform="matrix(0.80669984,0,0,0.80669984,103.22722,143.37909)" />
    <ellipse
       style="display:inline;fill:none;stroke:#029a1e;stroke-width:0.349848;stroke-opacity:1"
       id="path11770"
       cx="0"
       cy="-84.734726"
       rx="45.206795"
       ry="25.930553"
       transform="matrix(0.80669984,0,0,0.80669984,103.22722,143.37909)" />
    <ellipse
       style="display:inline;fill:none;stroke:#029a1e;stroke-width:0.349848;stroke-opacity:1"
       id="path11772"
       cx="0"
       cy="-86.528694"
       rx="39.821793"
       ry="22.841841"
       transform="matrix(0.80669984,0,0,0.80669984,103.22722,143.37909)" />
    <ellipse
       style="display:inline;fill:none;stroke:#029a1e;stroke-width:0.349848;stroke-opacity:1"
       id="path11774"
       cx="0"
       cy="-88.093208"
       rx="34.331184"
       ry="19.692558"
       transform="matrix(0.80669984,0,0,0.80669984,103.22722,143.37909)" />
    <ellipse
       style="display:inline;fill:none;stroke:#029a1e;stroke-width:0.349848;stroke-opacity:1"
       id="path11776"
       cx="0"
       cy="-89.42411"
       rx="28.74954"
       ry="16.491058"
       transform="matrix(0.80669984,0,0,0.80669984,103.22722,143.37909)" />
    <ellipse
       style="display:inline;fill:none;stroke:#029a1e;stroke-width:0.349848;stroke-opacity:1"
       id="path11778"
       cx="0"
       cy="-90.517883"
       rx="23.091656"
       ry="13.24583"
       transform="matrix(0.80669984,0,0,0.80669984,103.22722,143.37909)" />
    <ellipse
       style="display:inline;fill:none;stroke:#029a1e;stroke-width:0.349848;stroke-opacity:1"
       id="path11780"
       cx="0"
       cy="-91.371613"
       rx="17.372536"
       ry="9.965477"
       transform="matrix(0.80669984,0,0,0.80669984,103.22722,143.37909)" />
    <ellipse
       style="display:inline;fill:none;stroke:#029a1e;stroke-width:0.349848;stroke-opacity:1"
       id="path11782"
       cx="0"
       cy="-91.983047"
       rx="11.607348"
       ry="6.6587014"
       transform="matrix(0.80669984,0,0,0.80669984,103.22722,143.37909)" />
    <ellipse
       style="display:inline;fill:none;stroke:#029a1e;stroke-width:0.349848;stroke-opacity:1"
       id="path11784"
       cx="0"
       cy="-92.350555"
       rx="5.8113794"
       ry="3.3342702"
       transform="matrix(0.80669984,0,0,0.80669984,103.22722,143.37909)" />
  </g>
  <g
     inkscape:label="1 - Circle"
     inkscape:groupmode="layer"
     id="layer1"
     transform="translate(-36.472792,41.32909)"
     inkscape:highlight-color="#6035f3"
     style="display:inline">
    <circle
       style="display:inline;fill:none;stroke:#1902c5;stroke-width:0.349848;stroke-opacity:1"
       id="path11786"
       cx="0"
       cy="0"
       r="112.88889"
       transform="matrix(0.80669984,0,0,0.80669984,139.70001,102.05)" />
  </g>
</svg>
